<?xml version="1.0" encoding="UTF-8"?>
<!DOCTYPE svg PUBLIC "-//W3C//DTD SVG 1.0//EN" "http://www.w3.org/TR/2001/REC-SVG-20010904/DTD/svg10.dtd">
<!-- Creator: CorelDRAW 2020 (64-Bit) -->
<svg xmlns="http://www.w3.org/2000/svg" xml:space="preserve" width="42.3332mm" height="47.4132mm" version="1.0" style="shape-rendering:geometricPrecision; text-rendering:geometricPrecision; image-rendering:optimizeQuality; fill-rule:evenodd; clip-rule:evenodd"
viewBox="0 0 4233.32 4741.32"
 xmlns:xlink="http://www.w3.org/1999/xlink"
 xmlns:xodm="http://www.corel.com/coreldraw/odm/2003">
 <defs>
  <style type="text/css">
   <![CDATA[
    .fil2 {fill:none}
    .fil1 {fill:#E31E24}
    .fil0 {fill:#E31E24;fill-rule:nonzero}
   ]]>
  </style>
 </defs>
 <g id="Layer_x0020_1">
  <metadata id="CorelCorpID_0Corel-Layer"/>
  <g id="_2874730718304">
   <path class="fil0" d="M1013.41 2416.31c-6.63,0 -11.56,-0.83 -14.89,-2.47 -3.3,-1.66 1.66,-0.83 14.89,2.47zm153.86 193.55c0,6.63 0.8,12.4 2.47,17.36 1.66,4.97 0.83,-0.83 -2.47,-17.36zm1280.35 317.61c-6.63,6.6 -11.6,9.93 -14.9,9.93 -3.3,0 -8.26,1.64 -14.89,4.96l0 114.14 0 1300.21c0,16.53 -8.27,26.46 -24.8,29.76 -16.56,3.33 -29.79,3.33 -39.72,0 -23.16,0 -44.65,-6.6 -64.51,-19.83 -19.83,-13.23 -38.03,-26.49 -54.59,-39.72 -42.99,-33.09 -77.74,-72.78 -104.2,-119.1 -19.86,-33.09 -29.77,-67.82 -29.77,-104.21l0 -759.29 0 -258.06c-39.71,16.56 -78.57,33.09 -116.63,49.62 -38.05,16.56 -75.28,33.09 -111.67,49.65l-238.2 134c-36.39,23.13 -71.95,46.29 -106.7,69.45 -34.73,23.16 -70.29,47.98 -106.7,74.44 -19.83,13.23 -34.73,24.83 -44.66,34.76 -23.16,33.06 -47.96,63.68 -74.44,91.81 -26.46,28.12 -57.89,53.75 -94.28,76.91 -36.39,26.46 -75.28,50.45 -116.63,71.95 -41.36,21.52 -81.88,43.85 -121.57,67.01 -16.56,9.93 -31.43,14.87 -44.69,14.87 -13.23,0 -28.09,-3.3 -44.65,-9.9 -19.83,-6.63 -38.06,-16.56 -54.59,-29.79 -16.53,-13.23 -31.42,-26.46 -44.65,-39.7 -36.39,-29.78 -66.18,-64.51 -89.34,-104.23 -6.6,-9.9 -14.9,-25.63 -24.8,-47.12 -9.93,-21.53 -11.59,-40.55 -4.96,-57.09 19.83,-43.02 48.78,-78.57 86.84,-106.7 38.05,-28.12 76.91,-53.75 116.6,-76.91 16.56,-13.23 34.76,-24.83 54.62,-34.73 19.83,-9.93 38.02,-21.52 54.58,-34.75 16.53,-13.23 33.9,-25.63 52.09,-37.22 18.2,-11.57 35.59,-25.63 52.12,-42.19 13.23,-19.83 23.16,-36.39 29.79,-49.62 56.22,-112.47 84.34,-228.27 84.34,-347.38 0,-16.55 -0.83,-33.92 -2.46,-52.11 -1.67,-18.2 -4.14,-35.56 -7.47,-52.09 0,-16.56 -3.3,-38.06 -9.92,-64.52 -3.31,-6.63 -4.94,-11.59 -4.94,-14.89 0,-3.3 -1.67,-8.27 -4.97,-14.9 0,3.3 1.64,4.97 4.97,4.97 -3.33,0 -4.97,-1.67 -4.97,-4.97 -3.33,-9.93 -6.63,-19.86 -9.93,-29.76 -3.3,-9.93 -6.63,-19.86 -9.93,-29.79 -3.3,-6.63 -5.79,-10.76 -7.43,-12.4 -1.66,-1.66 -4.16,-5.79 -7.46,-12.42 -3.3,-9.9 -11.57,-24.8 -24.8,-44.66 -6.63,-6.6 -9.93,-11.56 -9.93,-14.89 -3.33,0 -4.96,-1.64 -4.96,-4.97 -3.3,0 -4.97,-1.63 -4.97,-4.93 -3.3,0 -4.96,-0.84 -4.96,-2.5 0,-1.66 -1.67,-2.47 -4.97,-2.47l-9.93 -4.96c-9.93,-6.63 -24.79,-13.23 -44.65,-19.86l-4.97 -4.97c3.3,0 4.97,0.83 4.97,2.5 0,1.64 1.66,2.47 4.96,2.47 -3.3,-3.3 -11.59,-4.97 -24.82,-4.97 -29.76,-9.93 -59.55,-14.89 -89.31,-14.89 -79.41,3.33 -155.49,21.52 -228.3,54.58 -29.76,16.56 -57.06,35.59 -81.88,57.09 -24.8,21.49 -45.49,47.15 -62.02,76.91 -13.23,33.09 -19.86,59.55 -19.86,79.41 0,16.53 1.66,28.12 4.97,34.73 6.62,33.08 -4.97,54.61 -34.73,64.51 -16.56,6.63 -33.92,4.97 -52.12,-4.96 -18.19,-9.91 -35.56,-19.84 -52.12,-29.77 -46.32,-26.46 -86.01,-61.21 -119.1,-104.2 -13.23,-16.56 -25.62,-34.76 -37.22,-54.59 -11.56,-19.86 -19.03,-41.35 -22.33,-64.51 -19.86,-109.2 8.27,-201.84 84.38,-277.92 36.39,-36.39 76.08,-64.52 119.1,-84.38 42.99,-19.83 87.67,-36.39 133.99,-49.62 105.88,-26.46 208.42,-23.99 307.69,7.46 99.24,31.43 190.21,80.22 272.92,146.4 95.95,76.08 177.02,167.89 243.17,275.42 66.18,107.51 110.84,222.48 134,344.9 0,9.93 0.83,19.84 2.49,29.77 1.64,9.93 2.47,18.19 2.47,24.82 33.09,-16.56 65.35,-32.26 96.77,-47.15 31.43,-14.9 63.69,-30.6 96.78,-47.15 49.62,-26.47 100.07,-49.63 151.36,-69.48 51.28,-19.84 101.73,-43 151.35,-69.46 13.23,-6.63 26.47,-14.06 39.7,-22.35 13.25,-8.27 26.48,-15.7 39.71,-22.33 0,0 6.61,-3.3 19.86,-9.93l0 -501.2 0 -1171.21c0,-16.53 7.44,-26.46 22.33,-29.76 14.87,-3.3 27.29,-3.3 37.22,0 23.16,3.3 44.66,10.76 64.52,22.33 19.83,11.59 38.03,23.99 54.59,37.22 42.99,33.09 77.74,72.78 104.2,119.1 23.16,33.09 34.73,67.82 34.73,104.21l0 665.01 0 590.54c1614.16,-953.72 1115.7,-222.42 29.79,451.61z"/>
   <g>
    <path class="fil1" d="M2144.87 352.35c641.02,1611.13 361.88,1954.85 113.72,3831.09 -40.6,-397.08 -128.42,-2677.91 -810.16,-2724.84l-116.24 104.29 812.68 -1210.54z"/>
   </g>
   <path class="fil2" d="M1738.53 957.62c679.27,456.13 520.06,1985.55 520.06,3225.82"/>
   <ellipse class="fil1" transform="matrix(33.819 2.18413 -1.51137 23.402 3451.44 2070.85)" rx="17.21" ry="27.49"/>
   <path class="fil1" d="M4007.45 3180.81c-533.63,-47.17 -951.42,-475.59 -951.42,-997.14 0,-287.98 127.38,-547.56 331.3,-730.25 -107.75,21.84 -209.4,59.47 -302.16,110.23 -141.08,170.52 -225.27,385.9 -225.27,620.02 0,553.1 469.88,1001.46 1049.48,1001.46 33.07,0 65.78,-1.47 98.07,-4.32z"/>
  </g>
 </g>
</svg>
